{"title":"The.Wolverine.2013.WEB-DL.XViD-VAiN","uid":9101452,"size":1755367791,"categoryP":"video","categoryS":"movies","magnet":"?xt=urn:btih:565f78f34082356cb40f8e6ee98332b7160cfb35&amp;dn=The.Wolverine.2013.WEB-DL.XViD-VAiN&amp;tr=udp%3A%2F%2Ftracker.openbittorrent.com%3A80&amp;tr=udp%3A%2F%2Fopen.demonii.com%3A1337&amp;tr=udp%3A%2F%2Ftracker.coppersurfer.tk%3A6969&amp;tr=udp%3A%2F%2Fexodus.desync.com%3A6969","seeders":7,"leechers":2,"uploader":"Thhaque","files":3,"time":1382776947,"description":" &lt;a href=&quot;http://i.imgur.com/4vHB969.jpg&quot; rel=&quot;nofollow&quot; target=&quot;_NEW&quot;&gt;http://i.imgur.com/4vHB969.jpg&lt;/a&gt;\n\nVAiN . P R E S E N T S . . .\n\nThe.Wolverline.2013.WEB-DL.XViD-VAiN\n\niMDB........: http://www.imdb.com/title/tt1430132/\n\nPLOT........: Summoned to Japan by an old acquaintance, Wolverine becomes embroiled in a conflict that forces him to confront his own demons.  \n\nT E C H N i C A L . i N F O . . .      \n\nFormat                           : AVI\nFormat/Info                      : Audio Video Interleave\nFile size                        : 1.62 GiB\nDuration                         : 2h 6mn\nOverall bit rate                 : 1 838 Kbps\nWriting application              : VirtualDubMod 1.5.10.2 (build 2540/release)\nWriting library                  : VirtualDubMod build 2540/release\n\nVideo\nID                               : 0\nFormat                           : MPEG-4 Visual\nFormat profile                   : Advanced Simple@L5\nFormat settings, BVOP            : 1\nFormat settings, QPel            : No\nFormat settings, GMC             : No warppoints\nFormat settings, Matrix          : Default (MPEG)\nCodec ID                         : XVID\nCodec ID/Hint                    : XviD\nDuration                         : 2h 6mn\nBit rate                         : 1 698 Kbps\nWidth                            : 720 pixels\nHeight                           : 358 pixels\nDisplay aspect ratio             : 2.011\nFrame rate                       : 29.970 fps\nColor space                      : YUV\nChroma subsampling               : 4:2:0\nBit depth                        : 8 bits\nScan type                        : Progressive\nCompression mode                 : Lossy\nBits/(Pixel*Frame)               : 0.220\nStream size                      : 1.50 GiB (92%)\nWriting library                  : XviD 1.2.1 (UTC 2008-12-04)\n\nAudio\nID                               : 1\nFormat                           : MPEG Audio\nFormat version                   : Version 1\nFormat profile                   : Layer 3\nMode                             : Joint stereo\nCodec ID                         : 55\nCodec ID/Hint                    : MP3\nDuration                         : 2h 6mn\nBit rate mode                    : Constant\nBit rate                         : 128 Kbps\nChannel(s)                       : 2 channels\nSampling rate                    : 48.0 KHz\nCompression mode                 : Lossy\nStream size                      : 115 MiB (7%)\nAlignment                        : Aligned on interleaves\nInterleave, duration             : 33 ms (1.00 video frame)\nWriting library                  : LAME3.99r\nEncoding settings                : -m j -V 4 -q 2 -lowpass 17 -b 128\n\n\n\n\n\nE N C O D E R S . N O T E S . . .       \n\n\nSOURCE......:  \n\n\nSAMPLE......: Yes \nADDED NOTE..: very aweosme QUALiTY and brought to you by VAiN...\n\nno time to splain what was done but as u can see, it's got subs no watermarks just subs. audio is good, cam quality forsure but think it's the best out there that u can get ATM\n\nv/8 a/7 imho but wanted to take our own wack at it. \n\nscreens do reresent all that was done \n\n\n\nS C R E E N . S H O T S . . .\n &lt;a href=&quot;\nhttp://i.imgur.com/E5pZChU.png&quot; rel=&quot;nofollow&quot; target=&quot;_NEW&quot;&gt;\nhttp://i.imgur.com/E5pZChU.png&lt;/a&gt;\n &lt;a href=&quot;\nhttp://i.imgur.com/WXxdtUM.png&quot; rel=&quot;nofollow&quot; target=&quot;_NEW&quot;&gt;\nhttp://i.imgur.com/WXxdtUM.png&lt;/a&gt;\n &lt;a href=&quot;\nhttp://i.imgur.com/WsWYpWV.png&quot; rel=&quot;nofollow&quot; target=&quot;_NEW&quot;&gt;\nhttp://i.imgur.com/WsWYpWV.png&lt;/a&gt;\n &lt;a href=&quot;\nhttp://i.imgur.com/2HxKVvB.png&quot; rel=&quot;nofollow&quot; target=&quot;_NEW&quot;&gt;\nhttp://i.imgur.com/2HxKVvB.png&lt;/a&gt;\n &lt;a href=&quot;\nhttp://i.imgur.com/LEaCR4w.png&quot; rel=&quot;nofollow&quot; target=&quot;_NEW&quot;&gt;\nhttp://i.imgur.com/LEaCR4w.png&lt;/a&gt;\n &lt;a href=&quot;\nhttp://i.imgur.com/d21xzIG.png&quot; rel=&quot;nofollow&quot; target=&quot;_NEW&quot;&gt;\nhttp://i.imgur.com/d21xzIG.png&lt;/a&gt;\n &lt;a href=&quot;\nhttp://i.imgur.com/RU0IMyi.png&quot; rel=&quot;nofollow&quot; target=&quot;_NEW&quot;&gt;\nhttp://i.imgur.com/RU0IMyi.png&lt;/a&gt;\n\n\n\nGREETZ:\n\nW4NTED worthy rival grps to add here. ;) SUCKAS!!!!!!!\n\n\n\n\n\n","torrent":{"xt":"urn:btih:565f78f34082356cb40f8e6ee98332b7160cfb35","amp;dn":"The.Wolverine.2013.WEB-DL.XViD-VAiN","amp;tr":["udp%3A%2F%2Ftracker.openbittorrent.com%3A80","udp%3A%2F%2Fopen.demonii.com%3A1337","udp%3A%2F%2Ftracker.coppersurfer.tk%3A6969","udp%3A%2F%2Fexodus.desync.com%3A6969"],"infoHash":"565f78f34082356cb40f8e6ee98332b7160cfb35","infoHashBuffer":{"type":"Buffer","data":[86,95,120,243,64,130,53,108,180,15,142,110,233,131,50,183,22,12,251,53]},"announce":[],"urlList":[]}}